# xmcd
#
# Track frame offsets:
#	150
#	17360
#	51275
#	66947
#	100850
#	120332
#	159742
#	198482
#	221127
#	244572
#	274635
#
# Disc length: 4275 seconds
#
# Revision: 0
# Processed by: cddbd v1.4PL0 Copyright (c) Steve Scherf et al.
# Submitted via: dBpowerAMP V4.0
#
DISCID=9510b10b
DTITLE=Moko Bovo - Moko Bovo
DYEAR=1997
DGENRE=Blues
TTITLE0=How can you  say don't leave me baby (when you look so good walking away)
TTITLE1=Bright Lights, Big City
TTITLE2=Richard's Theme
TTITLE3=Evening
TTITLE4=Gonna Buy Me a Lifestyle
TTITLE5=Moko Change-o
TTITLE6=Summertime
TTITLE7=Way Cool
TTITLE8=Dizziness
TTITLE9=Big Boss Man
TTITLE10=St. James Infirmary
EXTD=
EXTT0=
EXTT1=
EXTT2=
EXTT3=
EXTT4=
EXTT5=
EXTT6=
EXTT7=
EXTT8=
EXTT9=
EXTT10=
PLAYORDER=
